<svg width="287" height="348" viewBox="0 0 287 348" fill="none" xmlns="http://www.w3.org/2000/svg">
<path d="M150.797 0.000127661C148.566 -0.00395058 146.239 0.0896685 143.813 0.283146C82.4811 5.22255 98.7467 70.0163 97.8364 91.7136C96.7163 107.581 93.4992 120.085 82.5864 135.597C69.7656 150.843 51.7152 175.52 43.1643 201.207C39.1287 213.33 37.2083 225.687 38.9818 237.382C38.4263 237.879 37.8974 238.401 37.3944 238.938C33.6302 242.956 30.8489 247.825 27.7498 251.104C24.8544 253.992 20.7293 255.09 16.196 256.717C11.6611 258.344 6.68201 260.743 3.6597 266.542C3.6597 266.542 3.6597 266.545 3.65767 266.545C3.65274 266.555 3.64736 266.564 3.64222 266.574C0.906268 271.684 1.71962 277.569 2.5552 283.021C3.3908 288.473 4.23672 293.625 3.11388 297.12C-0.475242 306.93 -0.933471 313.716 1.59315 318.638C4.12516 323.57 9.33118 325.748 15.2151 326.977C26.983 329.434 42.9198 328.824 55.4799 335.481L56.5595 333.444L55.4911 335.487C68.9372 342.517 82.569 345.014 93.4447 342.53C101.33 340.729 107.731 336.033 111.018 328.809C119.524 328.767 128.859 325.164 143.812 324.341C153.955 323.524 166.627 327.943 181.202 327.134C181.583 328.715 182.135 330.236 182.89 331.681C182.897 331.696 182.905 331.711 182.912 331.726C188.563 343.024 199.061 348.192 210.249 347.309C221.452 346.425 233.363 339.819 242.991 328.361L241.226 326.878L243.005 328.345C252.182 317.217 267.414 312.603 277.514 306.511C282.565 303.465 286.662 299.651 286.979 294.111C287.295 288.575 284.045 282.37 276.57 274.072L276.568 274.07C276.565 274.067 276.562 274.063 276.559 274.06C274.103 271.285 272.932 266.141 271.673 260.663C270.414 255.188 269.01 249.283 264.515 245.456C264.506 245.448 264.497 245.441 264.488 245.433C262.7 243.874 260.841 242.816 258.969 242.106C265.218 223.573 262.766 205.12 256.458 188.444C248.717 167.979 235.202 150.146 224.88 137.947C213.326 123.374 202.026 109.538 202.248 89.1024C202.592 57.9137 205.679 0.0752598 150.796 0.000356307L150.797 0.000127661ZM158.227 48.0493C161.342 48.0493 164.002 48.9622 166.734 50.9453C169.509 52.9598 171.509 55.4817 173.121 59.0034C174.702 62.4356 175.463 65.7932 175.538 69.7775C175.538 69.882 175.538 69.9715 175.568 70.076C175.598 74.1647 174.896 77.6417 173.344 81.1933C172.459 83.2198 171.442 84.9207 170.225 86.3933C169.811 86.1949 169.382 86.0042 168.937 85.8211C165.852 84.4996 163.485 83.6587 161.512 82.9742C162.227 82.1146 162.823 81.0952 163.346 79.8208C164.137 77.8959 164.525 76.0156 164.6 73.7772C164.6 73.6877 164.63 73.613 164.63 73.5086C164.674 71.3598 164.391 69.5243 163.764 67.644C163.108 65.6743 162.272 64.2566 161.063 63.0778C159.854 61.8988 158.646 61.3617 157.198 61.3168C157.13 61.3128 157.063 61.3128 156.996 61.3128C155.634 61.3168 154.452 61.7837 153.229 62.8078C151.946 63.8823 150.99 65.2551 150.2 67.1652C149.409 69.0753 149.021 70.9704 148.946 73.2237C148.931 73.3133 148.931 73.3879 148.931 73.4774C148.905 74.716 148.984 75.8507 149.175 76.9525C146.389 75.5643 143.764 74.6179 141.3 74.0314C141.159 72.9659 141.078 71.8664 141.052 70.7168V70.4034C141.007 66.3295 141.679 62.8377 143.246 59.2861C144.813 55.7345 146.752 53.1827 149.483 51.1085C152.214 49.0343 154.9 48.0793 158.079 48.0494C158.128 48.0494 158.178 48.0494 158.227 48.0494L158.227 48.0493ZM115.602 51.4242C117.668 51.4291 119.517 52.1193 121.429 53.6463C123.503 55.3026 125.07 57.4216 126.383 60.4061C127.696 63.3907 128.398 66.3751 128.592 69.8969V69.9265C128.686 71.4056 128.674 72.7979 128.558 74.1463C128.149 74.2624 127.749 74.3881 127.356 74.5231C125.129 75.2899 123.166 76.3349 121.455 77.4648C121.622 76.2829 121.647 75.0837 121.518 73.7467C121.503 73.6721 121.503 73.6124 121.503 73.5378C121.324 71.762 120.951 70.2697 120.325 68.7626C119.653 67.1957 118.907 66.0914 117.922 65.2408C117.029 64.47 116.186 64.1161 115.258 64.1231C115.162 64.1231 115.065 64.1284 114.967 64.1365C113.923 64.226 113.057 64.7333 112.236 65.7332C111.416 66.733 110.879 67.9716 110.491 69.613C110.103 71.2545 109.998 72.8661 110.162 74.7165C110.162 74.7911 110.177 74.8509 110.177 74.9254C110.356 76.7162 110.714 78.2084 111.356 79.7156C112.013 81.2675 112.774 82.3718 113.759 83.2224C113.924 83.3648 114.087 83.4928 114.249 83.6071C113.225 84.3955 112.736 84.759 111.896 85.3759C111.358 85.771 110.717 86.2413 109.971 86.7907C108.346 85.2681 107.078 83.3544 105.969 80.8348C104.656 77.8503 103.955 74.8658 103.746 71.344V71.3144C103.552 67.7927 103.895 64.7634 104.865 61.6297C105.835 58.4959 107.133 56.2277 109.013 54.3623C110.894 52.497 112.789 51.5569 115.072 51.4376C115.25 51.4278 115.427 51.4233 115.602 51.4241L115.602 51.4242ZM134.988 75.8566C139.79 75.838 145.568 77.4123 152.563 81.91C156.86 84.7043 160.204 84.9378 167.903 88.2353L167.912 88.2394L167.922 88.243C171.626 89.7629 173.8 91.744 174.862 93.8301C175.925 95.9162 175.951 98.1785 175.061 100.558C173.283 105.318 167.607 110.327 159.642 112.814L159.635 112.818L159.628 112.821C155.744 114.083 152.357 116.869 148.365 119.152C144.372 121.435 139.855 123.276 133.712 122.921C133.712 122.921 133.712 122.921 133.712 122.921C128.482 122.616 125.356 120.841 122.53 118.569C119.703 116.298 117.24 113.444 113.633 111.326L113.624 111.32L113.614 111.315C107.805 108.031 104.633 104.233 103.637 100.94C102.642 97.6477 103.576 94.8371 106.459 92.6769C109.699 90.2481 111.951 88.596 113.45 87.4955C114.94 86.4024 115.56 85.9924 116.034 85.5369C116.037 85.5333 116.039 85.5317 116.042 85.5295L116.044 85.5259C118.479 83.2209 122.36 79.0216 128.212 77.0074C130.226 76.3142 132.473 75.8669 134.988 75.857L134.988 75.8566ZM168.566 95.7152C166.493 95.8388 164.323 96.9056 161.796 98.3164C159.269 99.7272 156.428 101.532 153.348 103.309C147.189 106.863 140.099 110.262 133.054 110.262C125.997 110.262 120.359 107.003 116.13 103.652C114.016 101.977 112.271 100.289 110.876 98.9833C110.179 98.3304 109.575 97.774 109.011 97.3395C108.447 96.9049 107.987 96.474 107.044 96.474L106.998 98.4572C106.931 99.1209 106.861 99.1004 106.889 99.1185C106.933 99.1474 107.152 99.2229 107.407 99.4198C107.822 99.7393 108.398 100.26 109.081 100.9C110.447 102.18 112.263 103.939 114.499 105.711C118.97 109.254 125.188 112.889 133.054 112.889C140.93 112.889 148.382 109.207 154.661 105.584C157.801 103.772 160.652 101.963 163.077 100.61C165.501 99.2562 167.541 98.4074 168.722 98.3369L168.566 95.7152ZM175.567 105.141C180.799 125.764 192.966 155.55 200.787 170.087C204.944 177.799 213.214 194.185 216.787 213.927C219.051 213.858 221.544 214.187 224.214 214.87C233.556 190.651 216.292 164.563 208.398 157.298C205.21 154.206 205.057 152.82 206.637 152.885C215.202 160.46 226.447 175.695 230.537 192.89C232.403 200.731 232.801 208.975 230.799 217.11C231.778 217.516 232.773 217.959 233.781 218.436C248.777 225.738 254.323 232.088 251.656 240.754C250.778 240.724 249.914 240.727 249.071 240.747C248.993 240.749 248.915 240.751 248.836 240.753C251.008 233.884 246.197 228.817 233.378 223.017C220.082 217.167 209.487 217.749 207.696 229.613C207.582 230.234 207.489 230.868 207.419 231.51C206.426 231.855 205.427 232.295 204.426 232.843C198.182 236.259 194.775 242.458 192.879 250.06C190.986 257.657 190.443 266.84 189.92 277.164C189.92 277.166 189.92 277.168 189.92 277.169C189.601 282.36 187.467 289.381 185.302 296.818C163.521 312.354 133.291 319.086 107.625 301.57C105.886 298.818 103.89 296.092 101.837 293.403C100.525 291.686 99.1777 289.979 97.8382 288.296C100.473 288.298 102.713 287.867 104.523 287.046C106.773 286.026 108.355 284.386 109.137 282.282C110.702 278.073 109.131 272.135 104.121 265.354C99.1119 258.574 90.6282 250.922 78.1619 243.277C78.1619 243.277 78.1599 243.277 78.1599 243.275C69.0014 237.577 63.8795 230.593 61.4821 223.011C59.0845 215.427 59.4207 207.227 61.2685 199.131C64.8153 183.591 73.9284 168.478 79.7431 158.993C81.3086 157.841 80.3024 161.131 73.8566 173.101C68.0798 184.044 57.2799 209.3 72.0668 229.015C72.462 214.985 75.8125 200.676 81.4373 187.292C89.6301 168.721 106.767 136.516 108.128 110.848C108.829 111.357 111.241 112.984 112.315 113.595C112.317 113.598 112.32 113.598 112.322 113.599C115.466 115.45 117.827 118.156 120.885 120.614C123.949 123.076 127.777 125.203 133.56 125.54C140.31 125.931 145.454 123.84 149.669 121.43C153.878 119.023 157.24 116.36 160.425 115.321C160.43 115.317 160.435 115.317 160.439 115.316C167.17 113.211 172.522 109.486 175.567 105.141L175.567 105.141ZM218.317 223.205C221.044 223.192 224.346 224.101 227.961 225.718C237.691 230.21 240.735 234.06 238.078 239.715C235.84 243.983 226.26 250.773 219.694 248.982C212.994 247.251 209.726 237.596 210.815 230.299C211.398 225.344 214.201 223.224 218.317 223.205ZM207.309 236.539C207.859 245.463 212.274 254.564 220.082 256.533C228.626 258.784 240.945 251.453 246.146 245.474C247.184 245.432 248.198 245.381 249.182 245.358C253.745 245.247 257.571 245.508 261.481 248.927L261.495 248.939L261.509 248.951C264.513 251.496 265.942 256.307 267.18 261.696C268.419 267.085 269.409 272.954 273.124 277.135L273.13 277.141L273.135 277.147C280.276 285.072 282.572 290.429 282.376 293.848C282.181 297.267 279.706 299.805 275.134 302.562C265.996 308.074 249.804 312.867 239.462 325.394C230.482 336.081 219.531 341.951 209.887 342.712C200.243 343.473 191.923 339.47 187.018 329.625L187.006 329.603L186.995 329.581C183.952 323.792 185.219 314.656 187.783 305.02C190.347 295.383 194.03 285.489 194.523 277.446V277.434V277.421C195.044 267.117 195.621 258.119 197.352 251.176C199.083 244.232 201.808 239.53 206.638 236.888C206.863 236.765 207.086 236.649 207.308 236.539L207.309 236.539ZM50.4871 237.213C51.2079 237.216 51.9707 237.276 52.7833 237.399C58.2497 238.227 63.0167 242.049 67.6093 248.278C72.2021 254.508 76.4755 263.011 80.8685 272.444L80.8741 272.456L80.8792 272.467C84.4095 279.835 91.8588 287.936 98.1717 296.201C104.485 304.466 109.37 312.763 108.734 319.112L108.731 319.14L108.729 319.167C107.906 329.997 101.797 335.893 92.4193 338.035C83.0442 340.176 70.3348 338.041 57.6404 331.407C57.6368 331.405 57.6329 331.403 57.6292 331.401C43.5847 323.962 26.877 324.701 16.1595 322.463C10.7992 321.343 7.30169 319.66 5.69642 316.533C4.09104 313.406 4.05521 307.95 7.46658 298.647L7.48159 298.606L7.49508 298.565C9.18214 293.361 7.93364 287.667 7.11456 282.323C6.29548 276.978 5.89492 272.117 7.71986 268.729L7.72826 268.713L7.73658 268.697C10.0731 264.193 13.5003 262.583 17.7538 261.057C22.0073 259.531 27.0511 258.333 31.0339 254.341L31.0546 254.32L31.0751 254.299C34.7572 250.415 37.5229 245.546 40.7599 242.09C43.491 239.174 46.2242 237.242 50.3439 237.213C50.3915 237.213 50.4394 237.213 50.4875 237.213L50.4871 237.213Z" fill="#05161E"/>
</svg>
