<svg width="50" height="40" viewBox="0 0 50 40" fill="none" xmlns="http://www.w3.org/2000/svg">
<path d="M46.875 11.3054H3.125C1.39912 11.3054 0 10.04 0 8.47909V2.82636C0 1.26542 1.39912 0 3.125 0H46.875C48.6009 0 50 1.26542 50 2.82636V8.47909C50 10.04 48.6009 11.3054 46.875 11.3054ZM42.1875 3.53295C40.8931 3.53295 39.8438 4.48199 39.8438 5.65272C39.8438 6.82346 40.8931 7.7725 42.1875 7.7725C43.4819 7.7725 44.5312 6.82346 44.5312 5.65272C44.5312 4.48199 43.4819 3.53295 42.1875 3.53295ZM35.9375 3.53295C34.6431 3.53295 33.5938 4.48199 33.5938 5.65272C33.5938 6.82346 34.6431 7.7725 35.9375 7.7725C37.2319 7.7725 38.2812 6.82346 38.2812 5.65272C38.2812 4.48199 37.2319 3.53295 35.9375 3.53295ZM46.875 25.4373H3.125C1.39912 25.4373 0 24.1718 0 22.6109V16.9582C0 15.3972 1.39912 14.1318 3.125 14.1318H46.875C48.6009 14.1318 50 15.3972 50 16.9582V22.6109C50 24.1718 48.6009 25.4373 46.875 25.4373ZM42.1875 17.6648C40.8931 17.6648 39.8438 18.6138 39.8438 19.7845C39.8438 20.9553 40.8931 21.9043 42.1875 21.9043C43.4819 21.9043 44.5312 20.9553 44.5312 19.7845C44.5312 18.6138 43.4819 17.6648 42.1875 17.6648ZM35.9375 17.6648C34.6431 17.6648 33.5938 18.6138 33.5938 19.7845C33.5938 20.9553 34.6431 21.9043 35.9375 21.9043C37.2319 21.9043 38.2812 20.9553 38.2812 19.7845C38.2812 18.6138 37.2319 17.6648 35.9375 17.6648ZM46.875 39.5691H3.125C1.39912 39.5691 0 38.3037 0 36.7427V31.09C0 29.529 1.39912 28.2636 3.125 28.2636H46.875C48.6009 28.2636 50 29.529 50 31.09V36.7427C50 38.3037 48.6009 39.5691 46.875 39.5691ZM42.1875 31.7966C40.8931 31.7966 39.8438 32.7456 39.8438 33.9163C39.8438 35.0871 40.8931 36.0361 42.1875 36.0361C43.4819 36.0361 44.5312 35.0871 44.5312 33.9163C44.5312 32.7456 43.4819 31.7966 42.1875 31.7966ZM35.9375 31.7966C34.6431 31.7966 33.5938 32.7456 33.5938 33.9163C33.5938 35.0871 34.6431 36.0361 35.9375 36.0361C37.2319 36.0361 38.2812 35.0871 38.2812 33.9163C38.2812 32.7456 37.2319 31.7966 35.9375 31.7966Z" fill="black"/>
</svg>
