<svg width="50" height="43" viewBox="0 0 50 43" fill="none" xmlns="http://www.w3.org/2000/svg">
<path d="M13.6338 0.344674C13.5249 0.235424 13.3955 0.148741 13.2531 0.0895935C13.1106 0.0304465 12.9579 0 12.8037 0C12.6494 0 12.4967 0.0304465 12.3543 0.0895935C12.2118 0.148741 12.0825 0.235424 11.9736 0.344674L5.75484 6.5273L3.53804 4.36714C3.42917 4.25789 3.2998 4.17121 3.15736 4.11206C3.01491 4.05291 2.86219 4.02247 2.70796 4.02247C2.55372 4.02247 2.401 4.05291 2.25856 4.11206C2.11612 4.17121 1.98675 4.25789 1.87788 4.36714L0.344674 5.9023C0.235424 6.01117 0.14874 6.14054 0.0895935 6.28298C0.0304465 6.42542 0 6.57814 0 6.73238C0 6.88661 0.0304465 7.03933 0.0895935 7.18177C0.14874 7.32422 0.235424 7.45358 0.344674 7.56246L4.99214 12.1914C5.22412 12.4119 5.53194 12.5348 5.852 12.5348C6.17206 12.5348 6.47989 12.4119 6.71187 12.1914L8.23433 10.666L15.2851 3.61616C15.5048 3.3963 15.6289 3.09869 15.6306 2.78789C15.6322 2.47709 15.5113 2.17818 15.2939 1.956L13.6338 0.344674ZM13.6338 15.8906C13.5249 15.7813 13.3955 15.6947 13.2531 15.6355C13.1106 15.5764 12.9579 15.5459 12.8037 15.5459C12.6494 15.5459 12.4967 15.5764 12.3543 15.6355C12.2118 15.6947 12.0825 15.7813 11.9736 15.8906L5.75484 22.1133L3.53804 19.955C3.42917 19.8458 3.2998 19.7591 3.15736 19.7C3.01491 19.6408 2.86219 19.6104 2.70796 19.6104C2.55372 19.6104 2.401 19.6408 2.25856 19.7C2.11612 19.7591 1.98675 19.8458 1.87788 19.955L0.344674 21.4873C0.235424 21.5961 0.14874 21.7255 0.0895935 21.868C0.0304465 22.0104 0 22.1631 0 22.3174C0 22.4716 0.0304465 22.6243 0.0895935 22.7668C0.14874 22.9092 0.235424 23.0386 0.344674 23.1474L4.98042 27.7861C5.21224 28.0066 5.5199 28.1295 5.8398 28.1295C6.15969 28.1295 6.46736 28.0066 6.69917 27.7861L8.23238 26.2539L15.2832 19.2011C15.502 18.9828 15.6257 18.6869 15.6274 18.3778C15.629 18.0686 15.5085 17.7714 15.292 17.5507L13.6338 15.8906ZM6.24995 32.8154C3.66304 32.8154 1.50483 34.915 1.50483 37.5029C1.50483 40.0908 3.66499 42.1904 6.24995 42.1904C7.49316 42.1904 8.68544 41.6966 9.56452 40.8175C10.4436 39.9384 10.9375 38.7461 10.9375 37.5029C10.9375 36.2597 10.4436 35.0674 9.56452 34.1883C8.68544 33.3093 7.49316 32.8154 6.24995 32.8154ZM48.4375 34.3779H20.3125C19.8981 34.3779 19.5006 34.5425 19.2076 34.8356C18.9146 35.1286 18.75 35.526 18.75 35.9404V39.0654C18.75 39.4798 18.9146 39.8772 19.2076 40.1703C19.5006 40.4633 19.8981 40.6279 20.3125 40.6279H48.4375C48.8519 40.6279 49.2493 40.4633 49.5424 40.1703C49.8354 39.8772 50 39.4798 50 39.0654V35.9404C50 35.526 49.8354 35.1286 49.5424 34.8356C49.2493 34.5425 48.8519 34.3779 48.4375 34.3779ZM48.4375 3.12788H20.3125C19.8981 3.12788 19.5006 3.2925 19.2076 3.58553C18.9146 3.87855 18.75 4.27598 18.75 4.69038V7.81539C18.75 8.22979 18.9146 8.62721 19.2076 8.92024C19.5006 9.21327 19.8981 9.37789 20.3125 9.37789H48.4375C48.8519 9.37789 49.2493 9.21327 49.5424 8.92024C49.8354 8.62721 50 8.22979 50 7.81539V4.69038C50 4.27598 49.8354 3.87855 49.5424 3.58553C49.2493 3.2925 48.8519 3.12788 48.4375 3.12788ZM48.4375 18.7529H20.3125C19.8981 18.7529 19.5006 18.9175 19.2076 19.2105C18.9146 19.5036 18.75 19.901 18.75 20.3154V23.4404C18.75 23.8548 18.9146 24.2522 19.2076 24.5453C19.5006 24.8383 19.8981 25.0029 20.3125 25.0029H48.4375C48.8519 25.0029 49.2493 24.8383 49.5424 24.5453C49.8354 24.2522 50 23.8548 50 23.4404V20.3154C50 19.901 49.8354 19.5036 49.5424 19.2105C49.2493 18.9175 48.8519 18.7529 48.4375 18.7529Z" fill="black"/>
</svg>
