<svg width="32" height="32" viewBox="0 0 32 32" fill="none" xmlns="http://www.w3.org/2000/svg">
<g filter="url(#filter0_d_45_29)">
<path d="M20.5491 12L27.372 5.17705C28.2093 4.33977 28.2093 2.98227 27.372 2.14432L25.8557 0.627955C25.0184 -0.209318 23.6609 -0.209318 22.823 0.627955L16 7.45091L9.17705 0.627955C8.33977 -0.209318 6.98227 -0.209318 6.14432 0.627955L4.62795 2.14432C3.79068 2.98159 3.79068 4.33909 4.62795 5.17705L11.4509 12L4.62795 18.823C3.79068 19.6602 3.79068 21.0177 4.62795 21.8557L6.14432 23.372C6.98159 24.2093 8.33977 24.2093 9.17705 23.372L16 16.5491L22.823 23.372C23.6602 24.2093 25.0184 24.2093 25.8557 23.372L27.372 21.8557C28.2093 21.0184 28.2093 19.6609 27.372 18.823L20.5491 12Z" fill="black"/>
</g>
<defs>
<filter id="filter0_d_45_29" x="0" y="0" width="32" height="32" filterUnits="userSpaceOnUse" color-interpolation-filters="sRGB">
<feFlood flood-opacity="0" result="BackgroundImageFix"/>
<feColorMatrix in="SourceAlpha" type="matrix" values="0 0 0 0 0 0 0 0 0 0 0 0 0 0 0 0 0 0 127 0" result="hardAlpha"/>
<feOffset dy="4"/>
<feGaussianBlur stdDeviation="2"/>
<feComposite in2="hardAlpha" operator="out"/>
<feColorMatrix type="matrix" values="0 0 0 0 0 0 0 0 0 0 0 0 0 0 0 0 0 0 0.25 0"/>
<feBlend mode="normal" in2="BackgroundImageFix" result="effect1_dropShadow_45_29"/>
<feBlend mode="normal" in="SourceGraphic" in2="effect1_dropShadow_45_29" result="shape"/>
</filter>
</defs>
</svg>
